Coordinates
version=1
nRows=11
nColumns=63
inDegrees=yes

Units are S.I. units (second, meters, Newtons, ...)
If the header above contains a line with 'inDegrees', this indicates whether rotational values are in degrees (yes) or radians (no).

endheader
time	pelvis_tilt	pelvis_list	pelvis_rotation	pelvis_tx	pelvis_ty	pelvis_tz	hip_flexion_r	hip_adduction_r	hip_rotation_r	knee_angle_r	knee_angle_r_beta	ankle_angle_r	subtalar_angle_r	mtp_angle_r	hip_flexion_l	hip_adduction_l	hip_rotation_l	knee_angle_l	knee_angle_l_beta	ankle_angle_l	subtalar_angle_l	mtp_angle_l	L5_S1_Flex_Ext	L5_S1_Lat_Bending	L5_S1_axial_rotation	L4_L5_Flex_Ext	L4_L5_Lat_Bending	L4_L5_axial_rotation	L3_L4_Flex_Ext	L3_L4_Lat_Bending	L3_L4_axial_rotation	L2_L3_Flex_Ext	L2_L3_Lat_Bending	L2_L3_axial_rotation	L1_L2_Flex_Ext	L1_L2_Lat_Bending	L1_L2_axial_rotation	L1_T12_Flex_Ext	L1_T12_Lat_Bending	L1_T12_axial_rotation	Abs_r3	Abs_r2	Abs_r1	Abs_t1	Abs_t2	neck_flexion	neck_bending	neck_rotation	arm_flex_r	arm_add_r	arm_rot_r	elbow_flex_r	pro_sup_r	wrist_flex_r	wrist_dev_r	arm_flex_l	arm_add_l	arm_rot_l	elbow_flex_l	pro_sup_l	wrist_flex_l	wrist_dev_l
      0.00800000	    -49.92011325	     -3.10117657	     -4.54930262	     -0.35431634	      0.98494041	      0.02726745	    128.54359873	     -9.10274697	     -1.03941560	    118.98153071	      2.07661946	     12.23807861	     -2.16097704	      0.00000000	     95.53795485	     -9.23748253	      4.23858855	     51.65554594	      0.90155935	     -5.17697868	      1.57165062	      0.00000000	     -0.09042234	      0.48185719	      0.86636436	     -0.16792333	      0.64087007	      0.92051213	     -0.14855486	      1.17158758	      0.92051213	     -0.10334369	      1.17158758	      0.75806881	     -0.08396618	      0.98260319	      0.70392104	     -0.05166732	      0.74639679	      0.64977327	     -0.64587773	      5.45086495	      4.81845864	      0.00000000	      0.00000000	     -0.00000000	      0.00000000	      0.00000000	     67.95102142	     -9.40185925	      9.63151230	     35.58790789	     19.59041422	      0.00000000	      6.09408932	     67.05526867	     -4.90020160	      3.96975661	     33.34958641	     24.89740671	      0.00000000	      6.09408932
      0.01700000	    -49.76804594	     -2.19497524	     -4.73055912	     -0.35493866	      0.98490724	      0.02967630	    131.96466175	     -9.01696999	     -1.36697318	    118.85254853	      2.07436830	     11.46667408	     -4.42779184	      0.00000000	     93.30874722	     -9.84964625	      2.70579582	     51.69243887	      0.90220326	     -6.62015169	      2.48106876	      0.00000000	     -0.08459640	      0.36488228	      0.96256961	     -0.15710397	      0.48529343	      1.02273021	     -0.13898342	      0.88717476	      1.02273021	     -0.09668522	      0.88717476	      0.84224841	     -0.07855621	      0.74406794	      0.78208781	     -0.04833838	      0.56520264	      0.72192720	     -0.60426361	      4.12762128	      5.35352338	      0.00000000	      0.00000000	     -0.00000000	      0.00000000	      0.00000000	     67.73031251	     -9.24736949	      8.51676979	     35.37426002	     19.62675380	      0.00000000	      6.01035762	     67.61760976	     -5.64555646	      7.29366775	     31.94767231	     25.41326041	      0.00000000	      6.01035762
      0.02500000	    -49.76058692	     -2.23990313	     -4.69023789	     -0.35479515	      0.98494669	      0.02982842	    132.53693178	     -9.14488038	     -1.53842523	    118.34155083	      2.06544970	     11.50009822	     -4.32230540	      0.00000000	     92.98464421	     -9.89188481	      2.56466522	     52.25402585	      0.91200480	     -6.57505816	      2.55323739	      0.00000000	     -0.08683469	      0.37650212	      0.96370804	     -0.16126071	      0.50074782	      1.02393979	     -0.14266072	      0.91542726	      1.02393979	     -0.09924337	      0.91542726	      0.84324453	     -0.08063470	      0.76776313	      0.78301278	     -0.04961734	      0.58320179	      0.72278103	     -0.62025154	      4.25906731	      5.35985499	      0.00000000	      0.00000000	     -0.00000000	      0.00000000	      0.00000000	     67.76136860	     -9.25496190	      8.48396360	     35.36845679	     19.69394614	      0.00000000	      5.99835861	     67.56053944	     -5.65073763	      7.23426704	     31.99108410	     25.43938637	      0.00000000	      5.99835861
      0.03300000	    -49.79116466	     -2.39480878	     -4.83631178	     -0.35461791	      0.98511030	      0.03011218	    132.98902723	     -9.17117928	     -1.91835495	    117.50046697	      2.05077002	     11.56448718	     -3.98344328	      0.00000000	     92.72339177	    -10.19948174	      2.48822808	     53.06114839	      0.92609174	     -5.92506043	      3.34990535	      0.00000000	     -0.08698653	      0.40514953	      0.99756248	     -0.16154268	      0.53884887	      1.05991013	     -0.14291017	      0.98508056	      1.05991013	     -0.09941690	      0.98508056	      0.87286717	     -0.08077569	      0.82618092	      0.81051951	     -0.04970410	      0.62757662	      0.74817186	     -0.62133607	      4.58313248	      5.54814323	      0.00000000	      0.00000000	     -0.00000000	      0.00000000	      0.00000000	     67.85650897	     -9.34550463	      8.75496495	     35.30813507	     19.84956918	      0.00000000	      5.92926674	     67.29476239	     -5.29775997	      5.61467158	     32.28132051	     25.16085444	      0.00000000	      5.92926674
      0.04200000	    -49.82155858	     -2.43984554	     -4.73118264	     -0.35446118	      0.98530805	      0.03023130	    133.46851709	     -9.25757118	     -2.05544834	    116.47268473	      2.03283184	     11.53004722	     -3.78357305	      0.00000000	     92.51310491	    -10.22730741	      2.26751148	     54.09948056	      0.94421406	     -5.75987734	      3.35385085	      0.00000000	     -0.08686886	      0.41769749	      0.98395914	     -0.16132415	      0.55553767	      1.04545658	     -0.14271684	      1.01558969	      1.04545658	     -0.09928242	      1.01558969	      0.86096425	     -0.08066642	      0.85176873	      0.79946680	     -0.04963686	      0.64701342	      0.73796935	     -0.62049555	      4.72507759	      5.47248554	      0.00000000	      0.00000000	     -0.00000000	      0.00000000	      0.00000000	     67.89908420	     -9.35213755	      8.83192971	     35.30018624	     19.94204939	      0.00000000	      5.91563190	     67.18475344	     -5.23564343	      5.26770752	     32.40544093	     25.14980427	      0.00000000	      5.91563190
      0.05000000	    -49.91543107	     -2.86943209	     -4.91232928	     -0.35442704	      0.98574350	      0.03036471	    133.61542825	     -9.36504540	     -2.69714566	    115.03661897	      2.00776776	     11.77292672	     -3.15735989	      0.00000000	     92.50075623	    -10.57969594	      2.49861346	     55.42492763	      0.96734747	     -5.07584838	      3.84170768	      0.00000000	     -0.08724308	      0.48427843	      1.02036028	     -0.16201912	      0.64409031	      1.08413280	     -0.14333165	      1.17747457	      1.08413280	     -0.09971011	      1.17747457	      0.89281525	     -0.08101392	      0.98754057	      0.82904273	     -0.04985069	      0.75014729	      0.76527021	     -0.62316857	      5.47825443	      5.67493778	      0.00000000	      0.00000000	     -0.00000000	      0.00000000	      0.00000000	     68.15302870	     -9.58013049	      9.68102463	     35.19709117	     20.15834043	      0.00000000	      5.84655522	     66.78980778	     -4.43737672	      1.96264928	     32.97649350	     24.63056408	      0.00000000	      5.84655522
      0.05800000	    -49.98129311	     -2.88014218	     -4.70149042	     -0.35440109	      0.98609475	      0.03050045	    133.86861386	     -9.39374267	     -2.75951783	    113.49272165	      1.98082167	     11.69770067	     -2.91716753	      0.00000000	     92.50148864	    -10.51203159	      2.31705753	     56.98071075	      0.99450101	     -4.88314643	      3.73979325	      0.00000000	     -0.08450991	      0.49050853	      0.97840353	     -0.15694336	      0.65237635	      1.03955375	     -0.13884134	      1.19262245	      1.03955375	     -0.09658638	      1.19262245	      0.85610309	     -0.07847590	      1.00024500	      0.79495287	     -0.04828896	      0.75979772	      0.73380265	     -0.60364586	      5.54873062	      5.44158693	      0.00000000	      0.00000000	     -0.00000000	      0.00000000	      0.00000000	     68.18922238	     -9.50852081	      9.76400877	     35.19952969	     20.25199495	      0.00000000	      5.83454854	     66.72741881	     -4.40631513	      1.64108568	     33.08336702	     24.63493796	      0.00000000	      5.83454854
      0.06700000	    -50.12362259	     -3.29194932	     -4.91065224	     -0.35472722	      0.98679790	      0.03090731	    133.68477231	     -9.35123843	     -3.43824707	    111.49891088	      1.94602311	     11.94206397	     -2.20738888	      0.00000000	     92.76659768	    -10.91339114	      2.51726748	     58.75768915	      1.02551514	     -4.46759012	      3.54005110	      0.00000000	     -0.08686494	      0.54959957	      1.01882015	     -0.16131688	      0.73096743	      1.08249641	     -0.14271041	      1.33629639	      1.08249641	     -0.09927794	      1.33629639	      0.89146763	     -0.08066279	      1.12074344	      0.82779137	     -0.04963463	      0.85132973	      0.76411511	     -0.62046760	      6.21718026	      5.66637201	      0.00000000	      0.00000000	     -0.00000000	      0.00000000	      0.00000000	     68.46762065	     -9.63101079	     10.27879400	     35.11871859	     20.40625363	      0.00000000	      5.79199023	     66.58231412	     -3.81858380	     -0.48255972	     33.48997055	     24.34760481	      0.00000000	      5.79199023
      0.07500000	    -50.24017597	     -3.46632247	     -4.77345648	     -0.35512242	      0.98741314	      0.03113734	    133.44721638	     -9.33746808	     -3.69271000	    109.38388356	      1.90910892	     12.04763673	     -1.72090606	      0.00000000	     93.13582157	    -10.94103694	      2.59215350	     60.75088808	      1.06030302	     -4.33910781	      3.31247633	      0.00000000	     -0.08738708	      0.57250266	      0.98863580	     -0.16228655	      0.76142854	      1.05042554	     -0.14356823	      1.39198297	      1.05042554	     -0.09987469	      1.39198297	      0.86505633	     -0.08114764	      1.16744743	      0.80326659	     -0.04993298	      0.88680662	      0.74147685	     -0.62419718	      6.47626462	      5.49849574	      0.00000000	      0.00000000	     -0.00000000	      0.00000000	      0.00000000	     68.65073790	     -9.64414805	     10.58854874	     35.00942596	     20.53860095	      0.00000000	      5.76130873	     66.59346943	     -3.54908368	     -1.64921370	     33.70755577	     24.23097305	      0.00000000	      5.76130873
      0.08300000	    -50.36206184	     -3.70121098	     -4.49312788	     -0.35567830	      0.98800505	      0.03117146	    132.99821754	     -9.41656232	     -3.91333226	    107.10087680	      1.86926293	     12.29823775	     -1.17843817	      0.00000000	     93.70318070	    -10.78090035	      2.81966464	     62.95255248	      1.09872931	     -4.25895637	      2.91434201	      0.00000000	     -0.08891724	      0.60090779	      0.93531686	     -0.16512820	      0.79920737	      0.99377416	     -0.14608213	      1.46104721	      0.99377416	     -0.10162351	      1.46104721	      0.81840225	     -0.08256855	      1.22537117	      0.75994494	     -0.05080731	      0.93080617	      0.70148764	     -0.63512694	      6.79758915	      5.20195175	      0.00000000	      0.00000000	     -0.00000000	      0.00000000	      0.00000000	     68.84158797	     -9.70722927	     10.99384181	     34.99916042	     20.69893925	      0.00000000	      5.71870054	     66.62128569	     -3.20404440	     -2.94012647	     33.92750990	     24.11104613	      0.00000000	      5.71870054
      0.09200000	    -50.45555491	     -3.61577338	     -3.97741263	     -0.35633365	      0.98850990	      0.03128516	    132.49455935	     -9.40583466	     -3.74659505	    104.71658356	      1.82764916	     12.27827118	     -0.98572684	      0.00000000	     94.33719828	    -10.39115946	      2.81069213	     65.26292352	      1.13905289	     -4.22834641	      2.73248932	      0.00000000	     -0.09011903	      0.57981177	      0.83734631	     -0.16736005	      0.77114965	      0.88968046	     -0.14805655	      1.40975434	      0.88968046	     -0.10299704	      1.40975434	      0.73267803	     -0.08368453	      1.18235216	      0.68034388	     -0.05149401	      0.89812843	      0.62800974	     -0.64371122	      6.55894670	      4.65706900	      0.00000000	      0.00000000	     -0.00000000	      0.00000000	      0.00000000	     68.91756777	     -9.64654272	     11.04330293	     34.98800126	     20.84714593	      0.00000000	      5.70358546	     66.81201767	     -3.19419736	     -3.14098035	     33.98778976	     24.19309653	      0.00000000	      5.70358546
